# xmcd
#
# Track frame offsets: 
#        150
#        12656
#        25026
#        37126
#        50028
#        61372
#        74157
#        85600
#        98588
#        109468
#        120604
#        132347
#        144838
#        156512
#        169175
#        180391
#        191699
#        202776
#        214764
#        227517
#        238730
#        252355
#        264604
#        276444
#        287423
#        299887
#        311749
#        324792
#        335895
#        348292
#
# Disc length: 4786 seconds
#
# Revision: 0
# Processed by: cddbd v1.5.2PL0 Copyright (c) Steve Scherf et al.
# Submitted via: ExactAudioCopyFreeDBPlugin 1.0
#
DISCID=d412b01e
DTITLE=Chet Atkins - The Early Years - 1946-1949 A
DYEAR=1900
DGENRE=Country
TTITLE0=Guitar Blues (Picking the Blue)
TTITLE1=Brown Eyes
TTITLE2=Ain'tcha Tired of Makin' Me Blue
TTITLE3=I'm Gonna Get Tight
TTITLE4=Canned Heat
TTITLE5=Standing Room Only
TTITLE6=Don't Hand Me That Line
TTITLE7=Bug Dance
TTITLE8=(I Know My Baby Loves Me) in Her Own Peculiar Way
TTITLE9=The Nashville Jump
TTITLE10=My Guitar Is My Sweetheart
TTITLE11=I'm Pickin' the Blues
TTITLE12=Gone, Gone, Gone
TTITLE13=Barnyard Shuffle
TTITLE14=Save Your Money
TTITLE15=(I May Be Color Blind But) I Know When I'm Blue 
TTITLE16=I've Been Working on the Guitar
TTITLE17=Dizzy Strings
TTITLE18=Money, Marbles and Chalk
TTITLE19=Wednesday Night Waltz
TTITLE20=Guitar Waltz
TTITLE21=Tellin' My Troubles to My Old Guitar
TTITLE22=Dance of the Goldenrod
TTITLE23=Galloping on the Guitar
TTITLE24=Barber Shop Rag
TTITLE25=Centipede Boogie
TTITLE26=Under the Hickory Nut Tree
TTITLE27=I Was Bitten by the Same Bug Twice
TTITLE28=One More Chance
TTITLE29=The Old Buck Dance
EXTD=
EXTT0=
EXTT1=
EXTT2=
EXTT3=
EXTT4=
EXTT5=
EXTT6=
EXTT7=
EXTT8=
EXTT9=
EXTT10=
EXTT11=
EXTT12=
EXTT13=
EXTT14=
EXTT15=
EXTT16=
EXTT17=
EXTT18=
EXTT19=
EXTT20=
EXTT21=
EXTT22=
EXTT23=
EXTT24=
EXTT25=
EXTT26=
EXTT27=
EXTT28=
EXTT29=
PLAYORDER=
